<?xml version="1.0" standalone="no"?>
<svg xmlns="http://www.w3.org/2000/svg" width="1024" height="1331" viewBox="0 0 1000 1300"><defs><clipPath id="clip-path-dot-color"><rect x="195" y="569" width="21" height="21" transform="rotate(0,205.5,579.5)"/><rect x="195" y="590" width="21" height="21" transform="rotate(0,205.5,600.5)"/><rect x="195" y="611" width="21" height="21" transform="rotate(0,205.5,621.5)"/><rect x="195" y="632" width="21" height="21" transform="rotate(0,205.5,642.5)"/><rect x="195" y="653" width="21" height="21" transform="rotate(0,205.5,663.5)"/><rect x="195" y="779" width="21" height="21" transform="rotate(0,205.5,789.5)"/><rect x="216" y="569" width="21" height="21" transform="rotate(0,226.5,579.5)"/><rect x="216" y="590" width="21" height="21" transform="rotate(0,226.5,600.5)"/><rect x="216" y="632" width="21" height="21" transform="rotate(0,226.5,642.5)"/><rect x="216" y="653" width="21" height="21" transform="rotate(0,226.5,663.5)"/><rect x="216" y="674" width="21" height="21" transform="rotate(0,226.5,684.5)"/><rect x="216" y="695" width="21" height="21" transform="rotate(0,226.5,705.5)"/><rect x="216" y="737" width="21" height="21" transform="rotate(0,226.5,747.5)"/><rect x="216" y="779" width="21" height="21" transform="rotate(0,226.5,789.5)"/><rect x="237" y="569" width="21" height="21" transform="rotate(0,247.5,579.5)"/><rect x="237" y="590" width="21" height="21" transform="rotate(0,247.5,600.5)"/><rect x="237" y="632" width="21" height="21" transform="rotate(0,247.5,642.5)"/><rect x="237" y="674" width="21" height="21" transform="rotate(0,247.5,684.5)"/><rect x="237" y="716" width="21" height="21" transform="rotate(0,247.5,726.5)"/><rect x="237" y="737" width="21" height="21" transform="rotate(0,247.5,747.5)"/><rect x="237" y="779" width="21" height="21" transform="rotate(0,247.5,789.5)"/><rect x="237" y="800" width="21" height="21" transform="rotate(0,247.5,810.5)"/><rect x="258" y="569" width="21" height="21" transform="rotate(0,268.5,579.5)"/><rect x="258" y="611" width="21" height="21" transform="rotate(0,268.5,621.5)"/><rect x="258" y="632" width="21" height="21" transform="rotate(0,268.5,642.5)"/><rect x="258" y="653" width="21" height="21" transform="rotate(0,268.5,663.5)"/><rect x="258" y="674" width="21" height="21" transform="rotate(0,268.5,684.5)"/><rect x="258" y="695" width="21" height="21" transform="rotate(0,268.5,705.5)"/><rect x="258" y="779" width="21" height="21" transform="rotate(0,268.5,789.5)"/><rect x="279" y="569" width="21" height="21" transform="rotate(0,289.5,579.5)"/><rect x="279" y="632" width="21" height="21" transform="rotate(0,289.5,642.5)"/><rect x="279" y="695" width="21" height="21" transform="rotate(0,289.5,705.5)"/><rect x="279" y="737" width="21" height="21" transform="rotate(0,289.5,747.5)"/><rect x="279" y="800" width="21" height="21" transform="rotate(0,289.5,810.5)"/><rect x="300" y="611" width="21" height="21" transform="rotate(0,310.5,621.5)"/><rect x="300" y="695" width="21" height="21" transform="rotate(0,310.5,705.5)"/><rect x="300" y="716" width="21" height="21" transform="rotate(0,310.5,726.5)"/><rect x="300" y="758" width="21" height="21" transform="rotate(0,310.5,768.5)"/><rect x="300" y="800" width="21" height="21" transform="rotate(0,310.5,810.5)"/><rect x="321" y="569" width="21" height="21" transform="rotate(0,331.5,579.5)"/><rect x="321" y="611" width="21" height="21" transform="rotate(0,331.5,621.5)"/><rect x="321" y="653" width="21" height="21" transform="rotate(0,331.5,663.5)"/><rect x="321" y="695" width="21" height="21" transform="rotate(0,331.5,705.5)"/><rect x="321" y="737" width="21" height="21" transform="rotate(0,331.5,747.5)"/><rect x="321" y="779" width="21" height="21" transform="rotate(0,331.5,789.5)"/><rect x="321" y="821" width="21" height="21" transform="rotate(0,331.5,831.5)"/><rect x="342" y="569" width="21" height="21" transform="rotate(0,352.5,579.5)"/><rect x="342" y="611" width="21" height="21" transform="rotate(0,352.5,621.5)"/><rect x="342" y="632" width="21" height="21" transform="rotate(0,352.5,642.5)"/><rect x="342" y="737" width="21" height="21" transform="rotate(0,352.5,747.5)"/><rect x="342" y="758" width="21" height="21" transform="rotate(0,352.5,768.5)"/><rect x="342" y="779" width="21" height="21" transform="rotate(0,352.5,789.5)"/><rect x="363" y="422" width="21" height="21" transform="rotate(0,373.5,432.5)"/><rect x="363" y="443" width="21" height="21" transform="rotate(0,373.5,453.5)"/><rect x="363" y="485" width="21" height="21" transform="rotate(0,373.5,495.5)"/><rect x="363" y="527" width="21" height="21" transform="rotate(0,373.5,537.5)"/><rect x="363" y="548" width="21" height="21" transform="rotate(0,373.5,558.5)"/><rect x="363" y="590" width="21" height="21" transform="rotate(0,373.5,600.5)"/><rect x="363" y="632" width="21" height="21" transform="rotate(0,373.5,642.5)"/><rect x="363" y="653" width="21" height="21" transform="rotate(0,373.5,663.5)"/><rect x="363" y="674" width="21" height="21" transform="rotate(0,373.5,684.5)"/><rect x="363" y="716" width="21" height="21" transform="rotate(0,373.5,726.5)"/><rect x="363" y="779" width="21" height="21" transform="rotate(0,373.5,789.5)"/><rect x="363" y="821" width="21" height="21" transform="rotate(0,373.5,831.5)"/><rect x="363" y="863" width="21" height="21" transform="rotate(0,373.5,873.5)"/><rect x="363" y="905" width="21" height="21" transform="rotate(0,373.5,915.5)"/><rect x="363" y="926" width="21" height="21" transform="rotate(0,373.5,936.5)"/><rect x="363" y="947" width="21" height="21" transform="rotate(0,373.5,957.5)"/><rect x="363" y="968" width="21" height="21" transform="rotate(0,373.5,978.5)"/><rect x="363" y="989" width="21" height="21" transform="rotate(0,373.5,999.5)"/><rect x="384" y="401" width="21" height="21" transform="rotate(0,394.5,411.5)"/><rect x="384" y="443" width="21" height="21" transform="rotate(0,394.5,453.5)"/><rect x="384" y="485" width="21" height="21" transform="rotate(0,394.5,495.5)"/><rect x="384" y="569" width="21" height="21" transform="rotate(0,394.5,579.5)"/><rect x="384" y="611" width="21" height="21" transform="rotate(0,394.5,621.5)"/><rect x="384" y="716" width="21" height="21" transform="rotate(0,394.5,726.5)"/><rect x="384" y="737" width="21" height="21" transform="rotate(0,394.5,747.5)"/><rect x="384" y="779" width="21" height="21" transform="rotate(0,394.5,789.5)"/><rect x="384" y="800" width="21" height="21" transform="rotate(0,394.5,810.5)"/><rect x="384" y="863" width="21" height="21" transform="rotate(0,394.5,873.5)"/><rect x="384" y="884" width="21" height="21" transform="rotate(0,394.5,894.5)"/><rect x="384" y="989" width="21" height="21" transform="rotate(0,394.5,999.5)"/><rect x="405" y="506" width="21" height="21" transform="rotate(0,415.5,516.5)"/><rect x="405" y="527" width="21" height="21" transform="rotate(0,415.5,537.5)"/><rect x="405" y="569" width="21" height="21" transform="rotate(0,415.5,579.5)"/><rect x="405" y="590" width="21" height="21" transform="rotate(0,415.5,600.5)"/><rect x="405" y="674" width="21" height="21" transform="rotate(0,415.5,684.5)"/><rect x="405" y="716" width="21" height="21" transform="rotate(0,415.5,726.5)"/><rect x="405" y="779" width="21" height="21" transform="rotate(0,415.5,789.5)"/><rect x="405" y="905" width="21" height="21" transform="rotate(0,415.5,915.5)"/><rect x="405" y="947" width="21" height="21" transform="rotate(0,415.5,957.5)"/><rect x="405" y="968" width="21" height="21" transform="rotate(0,415.5,978.5)"/><rect x="405" y="989" width="21" height="21" transform="rotate(0,415.5,999.5)"/><rect x="426" y="401" width="21" height="21" transform="rotate(0,436.5,411.5)"/><rect x="426" y="443" width="21" height="21" transform="rotate(0,436.5,453.5)"/><rect x="426" y="464" width="21" height="21" transform="rotate(0,436.5,474.5)"/><rect x="426" y="485" width="21" height="21" transform="rotate(0,436.5,495.5)"/><rect x="426" y="548" width="21" height="21" transform="rotate(0,436.5,558.5)"/><rect x="426" y="590" width="21" height="21" transform="rotate(0,436.5,600.5)"/><rect x="426" y="653" width="21" height="21" transform="rotate(0,436.5,663.5)"/><rect x="426" y="758" width="21" height="21" transform="rotate(0,436.5,768.5)"/><rect x="426" y="779" width="21" height="21" transform="rotate(0,436.5,789.5)"/><rect x="426" y="821" width="21" height="21" transform="rotate(0,436.5,831.5)"/><rect x="426" y="842" width="21" height="21" transform="rotate(0,436.5,852.5)"/><rect x="426" y="863" width="21" height="21" transform="rotate(0,436.5,873.5)"/><rect x="426" y="884" width="21" height="21" transform="rotate(0,436.5,894.5)"/><rect x="426" y="968" width="21" height="21" transform="rotate(0,436.5,978.5)"/><rect x="447" y="527" width="21" height="21" transform="rotate(0,457.5,537.5)"/><rect x="447" y="548" width="21" height="21" transform="rotate(0,457.5,558.5)"/><rect x="447" y="569" width="21" height="21" transform="rotate(0,457.5,579.5)"/><rect x="447" y="611" width="21" height="21" transform="rotate(0,457.5,621.5)"/><rect x="447" y="632" width="21" height="21" transform="rotate(0,457.5,642.5)"/><rect x="447" y="758" width="21" height="21" transform="rotate(0,457.5,768.5)"/><rect x="447" y="779" width="21" height="21" transform="rotate(0,457.5,789.5)"/><rect x="447" y="863" width="21" height="21" transform="rotate(0,457.5,873.5)"/><rect x="447" y="884" width="21" height="21" transform="rotate(0,457.5,894.5)"/><rect x="468" y="464" width="21" height="21" transform="rotate(0,478.5,474.5)"/><rect x="468" y="548" width="21" height="21" transform="rotate(0,478.5,558.5)"/><rect x="468" y="590" width="21" height="21" transform="rotate(0,478.5,600.5)"/><rect x="468" y="653" width="21" height="21" transform="rotate(0,478.5,663.5)"/><rect x="468" y="695" width="21" height="21" transform="rotate(0,478.5,705.5)"/><rect x="468" y="821" width="21" height="21" transform="rotate(0,478.5,831.5)"/><rect x="468" y="842" width="21" height="21" transform="rotate(0,478.5,852.5)"/><rect x="468" y="863" width="21" height="21" transform="rotate(0,478.5,873.5)"/><rect x="468" y="884" width="21" height="21" transform="rotate(0,478.5,894.5)"/><rect x="468" y="989" width="21" height="21" transform="rotate(0,478.5,999.5)"/><rect x="489" y="401" width="21" height="21" transform="rotate(0,499.5,411.5)"/><rect x="489" y="422" width="21" height="21" transform="rotate(0,499.5,432.5)"/><rect x="489" y="443" width="21" height="21" transform="rotate(0,499.5,453.5)"/><rect x="489" y="485" width="21" height="21" transform="rotate(0,499.5,495.5)"/><rect x="489" y="527" width="21" height="21" transform="rotate(0,499.5,537.5)"/><rect x="489" y="548" width="21" height="21" transform="rotate(0,499.5,558.5)"/><rect x="489" y="569" width="21" height="21" transform="rotate(0,499.5,579.5)"/><rect x="489" y="653" width="21" height="21" transform="rotate(0,499.5,663.5)"/><rect x="489" y="716" width="21" height="21" transform="rotate(0,499.5,726.5)"/><rect x="489" y="737" width="21" height="21" transform="rotate(0,499.5,747.5)"/><rect x="489" y="758" width="21" height="21" transform="rotate(0,499.5,768.5)"/><rect x="489" y="884" width="21" height="21" transform="rotate(0,499.5,894.5)"/><rect x="489" y="947" width="21" height="21" transform="rotate(0,499.5,957.5)"/><rect x="489" y="968" width="21" height="21" transform="rotate(0,499.5,978.5)"/><rect x="489" y="989" width="21" height="21" transform="rotate(0,499.5,999.5)"/><rect x="510" y="485" width="21" height="21" transform="rotate(0,520.5,495.5)"/><rect x="510" y="590" width="21" height="21" transform="rotate(0,520.5,600.5)"/><rect x="510" y="632" width="21" height="21" transform="rotate(0,520.5,642.5)"/><rect x="510" y="653" width="21" height="21" transform="rotate(0,520.5,663.5)"/><rect x="510" y="737" width="21" height="21" transform="rotate(0,520.5,747.5)"/><rect x="510" y="800" width="21" height="21" transform="rotate(0,520.5,810.5)"/><rect x="510" y="842" width="21" height="21" transform="rotate(0,520.5,852.5)"/><rect x="510" y="884" width="21" height="21" transform="rotate(0,520.5,894.5)"/><rect x="510" y="989" width="21" height="21" transform="rotate(0,520.5,999.5)"/><rect x="531" y="422" width="21" height="21" transform="rotate(0,541.5,432.5)"/><rect x="531" y="443" width="21" height="21" transform="rotate(0,541.5,453.5)"/><rect x="531" y="464" width="21" height="21" transform="rotate(0,541.5,474.5)"/><rect x="531" y="527" width="21" height="21" transform="rotate(0,541.5,537.5)"/><rect x="531" y="569" width="21" height="21" transform="rotate(0,541.5,579.5)"/><rect x="531" y="590" width="21" height="21" transform="rotate(0,541.5,600.5)"/><rect x="531" y="632" width="21" height="21" transform="rotate(0,541.5,642.5)"/><rect x="531" y="653" width="21" height="21" transform="rotate(0,541.5,663.5)"/><rect x="531" y="674" width="21" height="21" transform="rotate(0,541.5,684.5)"/><rect x="531" y="821" width="21" height="21" transform="rotate(0,541.5,831.5)"/><rect x="531" y="842" width="21" height="21" transform="rotate(0,541.5,852.5)"/><rect x="531" y="863" width="21" height="21" transform="rotate(0,541.5,873.5)"/><rect x="531" y="884" width="21" height="21" transform="rotate(0,541.5,894.5)"/><rect x="531" y="926" width="21" height="21" transform="rotate(0,541.5,936.5)"/><rect x="552" y="443" width="21" height="21" transform="rotate(0,562.5,453.5)"/><rect x="552" y="464" width="21" height="21" transform="rotate(0,562.5,474.5)"/><rect x="552" y="590" width="21" height="21" transform="rotate(0,562.5,600.5)"/><rect x="552" y="611" width="21" height="21" transform="rotate(0,562.5,621.5)"/><rect x="552" y="653" width="21" height="21" transform="rotate(0,562.5,663.5)"/><rect x="552" y="695" width="21" height="21" transform="rotate(0,562.5,705.5)"/><rect x="552" y="716" width="21" height="21" transform="rotate(0,562.5,726.5)"/><rect x="552" y="821" width="21" height="21" transform="rotate(0,562.5,831.5)"/><rect x="552" y="884" width="21" height="21" transform="rotate(0,562.5,894.5)"/><rect x="552" y="926" width="21" height="21" transform="rotate(0,562.5,936.5)"/><rect x="552" y="968" width="21" height="21" transform="rotate(0,562.5,978.5)"/><rect x="552" y="989" width="21" height="21" transform="rotate(0,562.5,999.5)"/><rect x="573" y="401" width="21" height="21" transform="rotate(0,583.5,411.5)"/><rect x="573" y="443" width="21" height="21" transform="rotate(0,583.5,453.5)"/><rect x="573" y="485" width="21" height="21" transform="rotate(0,583.5,495.5)"/><rect x="573" y="527" width="21" height="21" transform="rotate(0,583.5,537.5)"/><rect x="573" y="548" width="21" height="21" transform="rotate(0,583.5,558.5)"/><rect x="573" y="632" width="21" height="21" transform="rotate(0,583.5,642.5)"/><rect x="573" y="674" width="21" height="21" transform="rotate(0,583.5,684.5)"/><rect x="573" y="758" width="21" height="21" transform="rotate(0,583.5,768.5)"/><rect x="573" y="842" width="21" height="21" transform="rotate(0,583.5,852.5)"/><rect x="573" y="968" width="21" height="21" transform="rotate(0,583.5,978.5)"/><rect x="573" y="989" width="21" height="21" transform="rotate(0,583.5,999.5)"/><rect x="594" y="422" width="21" height="21" transform="rotate(0,604.5,432.5)"/><rect x="594" y="443" width="21" height="21" transform="rotate(0,604.5,453.5)"/><rect x="594" y="569" width="21" height="21" transform="rotate(0,604.5,579.5)"/><rect x="594" y="632" width="21" height="21" transform="rotate(0,604.5,642.5)"/><rect x="594" y="653" width="21" height="21" transform="rotate(0,604.5,663.5)"/><rect x="594" y="695" width="21" height="21" transform="rotate(0,604.5,705.5)"/><rect x="594" y="716" width="21" height="21" transform="rotate(0,604.5,726.5)"/><rect x="594" y="758" width="21" height="21" transform="rotate(0,604.5,768.5)"/><rect x="594" y="821" width="21" height="21" transform="rotate(0,604.5,831.5)"/><rect x="594" y="863" width="21" height="21" transform="rotate(0,604.5,873.5)"/><rect x="594" y="884" width="21" height="21" transform="rotate(0,604.5,894.5)"/><rect x="594" y="968" width="21" height="21" transform="rotate(0,604.5,978.5)"/><rect x="594" y="989" width="21" height="21" transform="rotate(0,604.5,999.5)"/><rect x="615" y="401" width="21" height="21" transform="rotate(0,625.5,411.5)"/><rect x="615" y="443" width="21" height="21" transform="rotate(0,625.5,453.5)"/><rect x="615" y="527" width="21" height="21" transform="rotate(0,625.5,537.5)"/><rect x="615" y="569" width="21" height="21" transform="rotate(0,625.5,579.5)"/><rect x="615" y="611" width="21" height="21" transform="rotate(0,625.5,621.5)"/><rect x="615" y="632" width="21" height="21" transform="rotate(0,625.5,642.5)"/><rect x="615" y="653" width="21" height="21" transform="rotate(0,625.5,663.5)"/><rect x="615" y="737" width="21" height="21" transform="rotate(0,625.5,747.5)"/><rect x="615" y="758" width="21" height="21" transform="rotate(0,625.5,768.5)"/><rect x="615" y="821" width="21" height="21" transform="rotate(0,625.5,831.5)"/><rect x="615" y="842" width="21" height="21" transform="rotate(0,625.5,852.5)"/><rect x="615" y="863" width="21" height="21" transform="rotate(0,625.5,873.5)"/><rect x="615" y="884" width="21" height="21" transform="rotate(0,625.5,894.5)"/><rect x="615" y="905" width="21" height="21" transform="rotate(0,625.5,915.5)"/><rect x="615" y="926" width="21" height="21" transform="rotate(0,625.5,936.5)"/><rect x="615" y="947" width="21" height="21" transform="rotate(0,625.5,957.5)"/><rect x="636" y="569" width="21" height="21" transform="rotate(0,646.5,579.5)"/><rect x="636" y="653" width="21" height="21" transform="rotate(0,646.5,663.5)"/><rect x="636" y="674" width="21" height="21" transform="rotate(0,646.5,684.5)"/><rect x="636" y="695" width="21" height="21" transform="rotate(0,646.5,705.5)"/><rect x="636" y="758" width="21" height="21" transform="rotate(0,646.5,768.5)"/><rect x="636" y="821" width="21" height="21" transform="rotate(0,646.5,831.5)"/><rect x="636" y="905" width="21" height="21" transform="rotate(0,646.5,915.5)"/><rect x="636" y="968" width="21" height="21" transform="rotate(0,646.5,978.5)"/><rect x="657" y="569" width="21" height="21" transform="rotate(0,667.5,579.5)"/><rect x="657" y="611" width="21" height="21" transform="rotate(0,667.5,621.5)"/><rect x="657" y="779" width="21" height="21" transform="rotate(0,667.5,789.5)"/><rect x="657" y="800" width="21" height="21" transform="rotate(0,667.5,810.5)"/><rect x="657" y="821" width="21" height="21" transform="rotate(0,667.5,831.5)"/><rect x="657" y="863" width="21" height="21" transform="rotate(0,667.5,873.5)"/><rect x="657" y="905" width="21" height="21" transform="rotate(0,667.5,915.5)"/><rect x="657" y="947" width="21" height="21" transform="rotate(0,667.5,957.5)"/><rect x="657" y="968" width="21" height="21" transform="rotate(0,667.5,978.5)"/><rect x="657" y="989" width="21" height="21" transform="rotate(0,667.5,999.5)"/><rect x="678" y="590" width="21" height="21" transform="rotate(0,688.5,600.5)"/><rect x="678" y="611" width="21" height="21" transform="rotate(0,688.5,621.5)"/><rect x="678" y="674" width="21" height="21" transform="rotate(0,688.5,684.5)"/><rect x="678" y="737" width="21" height="21" transform="rotate(0,688.5,747.5)"/><rect x="678" y="758" width="21" height="21" transform="rotate(0,688.5,768.5)"/><rect x="678" y="779" width="21" height="21" transform="rotate(0,688.5,789.5)"/><rect x="678" y="821" width="21" height="21" transform="rotate(0,688.5,831.5)"/><rect x="678" y="905" width="21" height="21" transform="rotate(0,688.5,915.5)"/><rect x="678" y="989" width="21" height="21" transform="rotate(0,688.5,999.5)"/><rect x="699" y="569" width="21" height="21" transform="rotate(0,709.5,579.5)"/><rect x="699" y="590" width="21" height="21" transform="rotate(0,709.5,600.5)"/><rect x="699" y="611" width="21" height="21" transform="rotate(0,709.5,621.5)"/><rect x="699" y="632" width="21" height="21" transform="rotate(0,709.5,642.5)"/><rect x="699" y="653" width="21" height="21" transform="rotate(0,709.5,663.5)"/><rect x="699" y="674" width="21" height="21" transform="rotate(0,709.5,684.5)"/><rect x="699" y="695" width="21" height="21" transform="rotate(0,709.5,705.5)"/><rect x="699" y="716" width="21" height="21" transform="rotate(0,709.5,726.5)"/><rect x="699" y="737" width="21" height="21" transform="rotate(0,709.5,747.5)"/><rect x="699" y="779" width="21" height="21" transform="rotate(0,709.5,789.5)"/><rect x="699" y="821" width="21" height="21" transform="rotate(0,709.5,831.5)"/><rect x="699" y="842" width="21" height="21" transform="rotate(0,709.5,852.5)"/><rect x="699" y="863" width="21" height="21" transform="rotate(0,709.5,873.5)"/><rect x="699" y="884" width="21" height="21" transform="rotate(0,709.5,894.5)"/><rect x="699" y="905" width="21" height="21" transform="rotate(0,709.5,915.5)"/><rect x="699" y="926" width="21" height="21" transform="rotate(0,709.5,936.5)"/><rect x="699" y="968" width="21" height="21" transform="rotate(0,709.5,978.5)"/><rect x="720" y="590" width="21" height="21" transform="rotate(0,730.5,600.5)"/><rect x="720" y="653" width="21" height="21" transform="rotate(0,730.5,663.5)"/><rect x="720" y="716" width="21" height="21" transform="rotate(0,730.5,726.5)"/><rect x="720" y="737" width="21" height="21" transform="rotate(0,730.5,747.5)"/><rect x="720" y="779" width="21" height="21" transform="rotate(0,730.5,789.5)"/><rect x="720" y="821" width="21" height="21" transform="rotate(0,730.5,831.5)"/><rect x="720" y="842" width="21" height="21" transform="rotate(0,730.5,852.5)"/><rect x="720" y="905" width="21" height="21" transform="rotate(0,730.5,915.5)"/><rect x="741" y="569" width="21" height="21" transform="rotate(0,751.5,579.5)"/><rect x="741" y="590" width="21" height="21" transform="rotate(0,751.5,600.5)"/><rect x="741" y="674" width="21" height="21" transform="rotate(0,751.5,684.5)"/><rect x="741" y="716" width="21" height="21" transform="rotate(0,751.5,726.5)"/><rect x="741" y="737" width="21" height="21" transform="rotate(0,751.5,747.5)"/><rect x="741" y="779" width="21" height="21" transform="rotate(0,751.5,789.5)"/><rect x="741" y="800" width="21" height="21" transform="rotate(0,751.5,810.5)"/><rect x="741" y="884" width="21" height="21" transform="rotate(0,751.5,894.5)"/><rect x="741" y="905" width="21" height="21" transform="rotate(0,751.5,915.5)"/><rect x="741" y="947" width="21" height="21" transform="rotate(0,751.5,957.5)"/><rect x="741" y="989" width="21" height="21" transform="rotate(0,751.5,999.5)"/><rect x="762" y="569" width="21" height="21" transform="rotate(0,772.5,579.5)"/><rect x="762" y="590" width="21" height="21" transform="rotate(0,772.5,600.5)"/><rect x="762" y="611" width="21" height="21" transform="rotate(0,772.5,621.5)"/><rect x="762" y="632" width="21" height="21" transform="rotate(0,772.5,642.5)"/><rect x="762" y="653" width="21" height="21" transform="rotate(0,772.5,663.5)"/><rect x="762" y="674" width="21" height="21" transform="rotate(0,772.5,684.5)"/><rect x="762" y="695" width="21" height="21" transform="rotate(0,772.5,705.5)"/><rect x="762" y="737" width="21" height="21" transform="rotate(0,772.5,747.5)"/><rect x="762" y="758" width="21" height="21" transform="rotate(0,772.5,768.5)"/><rect x="762" y="779" width="21" height="21" transform="rotate(0,772.5,789.5)"/><rect x="762" y="800" width="21" height="21" transform="rotate(0,772.5,810.5)"/><rect x="762" y="842" width="21" height="21" transform="rotate(0,772.5,852.5)"/><rect x="762" y="884" width="21" height="21" transform="rotate(0,772.5,894.5)"/><rect x="762" y="968" width="21" height="21" transform="rotate(0,772.5,978.5)"/><rect x="783" y="590" width="21" height="21" transform="rotate(0,793.5,600.5)"/><rect x="783" y="611" width="21" height="21" transform="rotate(0,793.5,621.5)"/><rect x="783" y="632" width="21" height="21" transform="rotate(0,793.5,642.5)"/><rect x="783" y="674" width="21" height="21" transform="rotate(0,793.5,684.5)"/><rect x="783" y="695" width="21" height="21" transform="rotate(0,793.5,705.5)"/><rect x="783" y="716" width="21" height="21" transform="rotate(0,793.5,726.5)"/><rect x="783" y="737" width="21" height="21" transform="rotate(0,793.5,747.5)"/><rect x="783" y="758" width="21" height="21" transform="rotate(0,793.5,768.5)"/><rect x="783" y="800" width="21" height="21" transform="rotate(0,793.5,810.5)"/><rect x="783" y="821" width="21" height="21" transform="rotate(0,793.5,831.5)"/><rect x="783" y="863" width="21" height="21" transform="rotate(0,793.5,873.5)"/><rect x="783" y="905" width="21" height="21" transform="rotate(0,793.5,915.5)"/><rect x="783" y="968" width="21" height="21" transform="rotate(0,793.5,978.5)"/><rect x="783" y="989" width="21" height="21" transform="rotate(0,793.5,999.5)"/></clipPath><clipPath id="clip-path-corners-square-color-0-0"><rect x="195" y="401" width="21" height="21" transform="rotate(0,205.5,411.5)"/><rect x="195" y="422" width="21" height="21" transform="rotate(0,205.5,432.5)"/><rect x="195" y="443" width="21" height="21" transform="rotate(0,205.5,453.5)"/><rect x="195" y="464" width="21" height="21" transform="rotate(0,205.5,474.5)"/><rect x="195" y="485" width="21" height="21" transform="rotate(0,205.5,495.5)"/><rect x="195" y="506" width="21" height="21" transform="rotate(0,205.5,516.5)"/><rect x="195" y="527" width="21" height="21" transform="rotate(0,205.5,537.5)"/><rect x="216" y="401" width="21" height="21" transform="rotate(0,226.5,411.5)"/><rect x="216" y="527" width="21" height="21" transform="rotate(0,226.5,537.5)"/><rect x="237" y="401" width="21" height="21" transform="rotate(0,247.5,411.5)"/><rect x="237" y="527" width="21" height="21" transform="rotate(0,247.5,537.5)"/><rect x="258" y="401" width="21" height="21" transform="rotate(0,268.5,411.5)"/><rect x="258" y="527" width="21" height="21" transform="rotate(0,268.5,537.5)"/><rect x="279" y="401" width="21" height="21" transform="rotate(0,289.5,411.5)"/><rect x="279" y="527" width="21" height="21" transform="rotate(0,289.5,537.5)"/><rect x="300" y="401" width="21" height="21" transform="rotate(0,310.5,411.5)"/><rect x="300" y="527" width="21" height="21" transform="rotate(0,310.5,537.5)"/><rect x="321" y="401" width="21" height="21" transform="rotate(0,331.5,411.5)"/><rect x="321" y="422" width="21" height="21" transform="rotate(0,331.5,432.5)"/><rect x="321" y="443" width="21" height="21" transform="rotate(0,331.5,453.5)"/><rect x="321" y="464" width="21" height="21" transform="rotate(0,331.5,474.5)"/><rect x="321" y="485" width="21" height="21" transform="rotate(0,331.5,495.5)"/><rect x="321" y="506" width="21" height="21" transform="rotate(0,331.5,516.5)"/><rect x="321" y="527" width="21" height="21" transform="rotate(0,331.5,537.5)"/></clipPath><clipPath id="clip-path-corners-dot-color-0-0"><rect x="237" y="443" width="21" height="21" transform="rotate(0,247.5,453.5)"/><rect x="237" y="464" width="21" height="21" transform="rotate(0,247.5,474.5)"/><rect x="237" y="485" width="21" height="21" transform="rotate(0,247.5,495.5)"/><rect x="258" y="443" width="21" height="21" transform="rotate(0,268.5,453.5)"/><rect x="258" y="464" width="21" height="21" transform="rotate(0,268.5,474.5)"/><rect x="258" y="485" width="21" height="21" transform="rotate(0,268.5,495.5)"/><rect x="279" y="443" width="21" height="21" transform="rotate(0,289.5,453.5)"/><rect x="279" y="464" width="21" height="21" transform="rotate(0,289.5,474.5)"/><rect x="279" y="485" width="21" height="21" transform="rotate(0,289.5,495.5)"/></clipPath><clipPath id="clip-path-corners-square-color-1-0"><rect x="657" y="401" width="21" height="21" transform="rotate(0,667.5,411.5)"/><rect x="657" y="422" width="21" height="21" transform="rotate(0,667.5,432.5)"/><rect x="657" y="443" width="21" height="21" transform="rotate(0,667.5,453.5)"/><rect x="657" y="464" width="21" height="21" transform="rotate(0,667.5,474.5)"/><rect x="657" y="485" width="21" height="21" transform="rotate(0,667.5,495.5)"/><rect x="657" y="506" width="21" height="21" transform="rotate(0,667.5,516.5)"/><rect x="657" y="527" width="21" height="21" transform="rotate(0,667.5,537.5)"/><rect x="678" y="401" width="21" height="21" transform="rotate(0,688.5,411.5)"/><rect x="678" y="527" width="21" height="21" transform="rotate(0,688.5,537.5)"/><rect x="699" y="401" width="21" height="21" transform="rotate(0,709.5,411.5)"/><rect x="699" y="527" width="21" height="21" transform="rotate(0,709.5,537.5)"/><rect x="720" y="401" width="21" height="21" transform="rotate(0,730.5,411.5)"/><rect x="720" y="527" width="21" height="21" transform="rotate(0,730.5,537.5)"/><rect x="741" y="401" width="21" height="21" transform="rotate(0,751.5,411.5)"/><rect x="741" y="527" width="21" height="21" transform="rotate(0,751.5,537.5)"/><rect x="762" y="401" width="21" height="21" transform="rotate(0,772.5,411.5)"/><rect x="762" y="527" width="21" height="21" transform="rotate(0,772.5,537.5)"/><rect x="783" y="401" width="21" height="21" transform="rotate(0,793.5,411.5)"/><rect x="783" y="422" width="21" height="21" transform="rotate(0,793.5,432.5)"/><rect x="783" y="443" width="21" height="21" transform="rotate(0,793.5,453.5)"/><rect x="783" y="464" width="21" height="21" transform="rotate(0,793.5,474.5)"/><rect x="783" y="485" width="21" height="21" transform="rotate(0,793.5,495.5)"/><rect x="783" y="506" width="21" height="21" transform="rotate(0,793.5,516.5)"/><rect x="783" y="527" width="21" height="21" transform="rotate(0,793.5,537.5)"/></clipPath><clipPath id="clip-path-corners-dot-color-1-0"><rect x="699" y="443" width="21" height="21" transform="rotate(0,709.5,453.5)"/><rect x="699" y="464" width="21" height="21" transform="rotate(0,709.5,474.5)"/><rect x="699" y="485" width="21" height="21" transform="rotate(0,709.5,495.5)"/><rect x="720" y="443" width="21" height="21" transform="rotate(0,730.5,453.5)"/><rect x="720" y="464" width="21" height="21" transform="rotate(0,730.5,474.5)"/><rect x="720" y="485" width="21" height="21" transform="rotate(0,730.5,495.5)"/><rect x="741" y="443" width="21" height="21" transform="rotate(0,751.5,453.5)"/><rect x="741" y="464" width="21" height="21" transform="rotate(0,751.5,474.5)"/><rect x="741" y="485" width="21" height="21" transform="rotate(0,751.5,495.5)"/></clipPath><clipPath id="clip-path-corners-square-color-0-1"><rect x="195" y="863" width="21" height="21" transform="rotate(0,205.5,873.5)"/><rect x="195" y="884" width="21" height="21" transform="rotate(0,205.5,894.5)"/><rect x="195" y="905" width="21" height="21" transform="rotate(0,205.5,915.5)"/><rect x="195" y="926" width="21" height="21" transform="rotate(0,205.5,936.5)"/><rect x="195" y="947" width="21" height="21" transform="rotate(0,205.5,957.5)"/><rect x="195" y="968" width="21" height="21" transform="rotate(0,205.5,978.5)"/><rect x="195" y="989" width="21" height="21" transform="rotate(0,205.5,999.5)"/><rect x="216" y="863" width="21" height="21" transform="rotate(0,226.5,873.5)"/><rect x="216" y="989" width="21" height="21" transform="rotate(0,226.5,999.5)"/><rect x="237" y="863" width="21" height="21" transform="rotate(0,247.5,873.5)"/><rect x="237" y="989" width="21" height="21" transform="rotate(0,247.5,999.5)"/><rect x="258" y="863" width="21" height="21" transform="rotate(0,268.5,873.5)"/><rect x="258" y="989" width="21" height="21" transform="rotate(0,268.5,999.5)"/><rect x="279" y="863" width="21" height="21" transform="rotate(0,289.5,873.5)"/><rect x="279" y="989" width="21" height="21" transform="rotate(0,289.5,999.5)"/><rect x="300" y="863" width="21" height="21" transform="rotate(0,310.5,873.5)"/><rect x="300" y="989" width="21" height="21" transform="rotate(0,310.5,999.5)"/><rect x="321" y="863" width="21" height="21" transform="rotate(0,331.5,873.5)"/><rect x="321" y="884" width="21" height="21" transform="rotate(0,331.5,894.5)"/><rect x="321" y="905" width="21" height="21" transform="rotate(0,331.5,915.5)"/><rect x="321" y="926" width="21" height="21" transform="rotate(0,331.5,936.5)"/><rect x="321" y="947" width="21" height="21" transform="rotate(0,331.5,957.5)"/><rect x="321" y="968" width="21" height="21" transform="rotate(0,331.5,978.5)"/><rect x="321" y="989" width="21" height="21" transform="rotate(0,331.5,999.5)"/></clipPath><clipPath id="clip-path-corners-dot-color-0-1"><rect x="237" y="905" width="21" height="21" transform="rotate(0,247.5,915.5)"/><rect x="237" y="926" width="21" height="21" transform="rotate(0,247.5,936.5)"/><rect x="237" y="947" width="21" height="21" transform="rotate(0,247.5,957.5)"/><rect x="258" y="905" width="21" height="21" transform="rotate(0,268.5,915.5)"/><rect x="258" y="926" width="21" height="21" transform="rotate(0,268.5,936.5)"/><rect x="258" y="947" width="21" height="21" transform="rotate(0,268.5,957.5)"/><rect x="279" y="905" width="21" height="21" transform="rotate(0,289.5,915.5)"/><rect x="279" y="926" width="21" height="21" transform="rotate(0,289.5,936.5)"/><rect x="279" y="947" width="21" height="21" transform="rotate(0,289.5,957.5)"/></clipPath></defs><defs/><path fill="#df496e" d="M907.52,289.23L907.52,289.23C907.52,289.23,907.52,289.23,907.52,289.23v815.03l0,0H92.48V289.23H907.52 M907.52,249.23 H92.48c-22.09,0-40,17.91-40,40v815.03c0,22.09,17.91,40,40,40h815.03c22.09,0,40-17.91,40-40V289.23 C947.52,267.14,929.61,249.23,907.52,249.23L907.52,249.23z"/>
			<path fill="#df496e" d="M907.52,1300H92.48c-22.09,0-40-17.91-40-40v-150.64h895.03V1260C947.52,1282.09,929.61,1300,907.52,1300z"/>
			<path fill="#fae1e7" opacity="0.5" d="M1000,252.42v15.24l-209.57-1.74c1.86,12.94,1.16,27.19-6.31,41.09c-8.37,15.59-26.66,34.17-66.2,34.17 c-52.4,0-123.83-34.06-165.37-68.97c-7.74,5.33-17.01,8.3-26.65,8.3h-37.53c-9.65,0-18.91-2.97-26.65-8.3 c-41.53,34.91-112.97,68.97-165.37,68.97c-39.54,0-57.83-18.58-66.2-34.17c-7.48-13.93-8.18-28.21-6.3-41.18L0,267.66l1-15.24 H1000z"/>
			<path fill="#fae1e7" d="M315.72,84.4c0,0-230.43-8.32-299.14-1.84c36.1,32.76,68.76,76.64,68.76,76.64L1,252.42 c0,0,321.01-2.29,370.14-2.65C362.54,216.49,315.72,84.4,315.72,84.4z"/>
			<path fill="#fae1e7" d="M685.28,84.4c0,0,230.43-8.32,299.14-1.84c-36.1,32.76-68.76,76.64-68.76,76.64l84.34,93.22 c0,0-321.01-2.29-370.14-2.65C638.46,216.49,685.28,84.4,685.28,84.4z"/>
			<path fill="#df496e" d="M537.66,89.21c0,0,103.53-89.15,181.75-88.35s73.87,49.43,70.55,63.45c-5.88,24.89-36.04,85.94-36.04,119.67 s35.52,78.54,16.97,114.69c-37.32,72.75-202.56-15.9-233.24-68.91S537.66,89.21,537.66,89.21z"/>
			<path fill="#fae1e7" d="M580.48,91.21c0,0,133.1-95.59,171.62-55.62C794.79,79.88,580.48,91.21,580.48,91.21z"/>
			<path fill="#df496e" d="M476.59,89.21c0,0-103.53-89.15-181.75-88.35s-73.87,49.43-70.55,63.45c5.88,24.89,36.04,85.94,36.04,119.67 s-35.52,78.54-16.97,114.69c37.32,72.75,202.56-15.9,233.24-68.91S476.59,89.21,476.59,89.21z"/>
			<path fill="#fae1e7" d="M433.77,91.21c0,0-133.1-95.59-171.62-55.62C219.46,79.88,433.77,91.21,433.77,91.21z"/>
			<path fill="#fae1e7" d="M525.89,262.63h-37.53c-17.67,0-32-14.33-32-32V110.64c0-17.67,14.33-32,32-32h37.53c17.67,0,32,14.33,32,32 v119.99C557.89,248.31,543.56,262.63,525.89,262.63z"/>
			<text fill="#ffffff" font-size="90" x="50%" y="1212" dominant-baseline="middle" text-anchor="middle" font-family="sans-serif" font-weight="600">Escaneie</text><rect x="149" y="354" height="703" width="702" clip-path="url('#clip-path-background-color')" fill="#ffffff"/><rect x="195" y="401" height="609" width="609" clip-path="url('#clip-path-dot-color')" fill="#000000"/><rect x="195" y="401" height="147" width="147" clip-path="url('#clip-path-corners-square-color-0-0')" fill="#000000"/><rect x="237" y="443" height="63" width="63" clip-path="url('#clip-path-corners-dot-color-0-0')" fill="#000000"/><rect x="657" y="401" height="147" width="147" clip-path="url('#clip-path-corners-square-color-1-0')" fill="#000000"/><rect x="699" y="443" height="63" width="63" clip-path="url('#clip-path-corners-dot-color-1-0')" fill="#000000"/><rect x="195" y="863" height="147" width="147" clip-path="url('#clip-path-corners-square-color-0-1')" fill="#000000"/><rect x="237" y="905" height="63" width="63" clip-path="url('#clip-path-corners-dot-color-0-1')" fill="#000000"/></svg>